<?xml version="1.0" encoding="utf-8"?>
<!-- Generator: Adobe Illustrator 16.0.3, SVG Export Plug-In . SVG Version: 6.00 Build 0)  -->
<!DOCTYPE svg PUBLIC "-//W3C//DTD SVG 1.1//EN" "http://www.w3.org/Graphics/SVG/1.1/DTD/svg11.dtd">
<svg version="1.1" id="Ebene_1" xmlns="http://www.w3.org/2000/svg" xmlns:xlink="http://www.w3.org/1999/xlink" x="0px" y="0px"
	 width="160px" height="180px" viewBox="0 0 160 180" enable-background="new 0 0 160 180" xml:space="preserve">
<g>
	<path fill="#FFFFFF" d="M149.416,100.743l2.093,3.002l-1.136-3.479c-0.583-1.789-2.674-7.41-6.989-11.629
		c1.036,0.473,2.286,1.209,3.402,2.326c0.135,0.133,0.245,0.229,0.338,0.292l1.1,0.737l-0.27-1.296
		c-0.241-1.164-7.163-11.596-13.423-18.919c1.088,0.323,3.313,1.056,4.942,2.073l2.621,1.637l-13.409-17.051
		c0.818-0.385,1.655-0.305,2.725,0.234l2.505,1.264l-7.521-8.52l-1.897-1.594c6.61-2.211,11.446-6.473,14.768-13.004l1.721-3.385
		l-2.597,2.771c-3.086,3.291-6.423,6.047-9.949,8.216c0.709-1.046,1.125-1.933,1.262-2.682l0.267-1.474l-1.146,0.964
		c-2.534,2.131-4.788,3.568-6.88,4.382c-0.566-0.904-1.938-3.058-2.594-3.766c-0.477-0.514-1.527-0.966-1.965-1.141
		c-1.393-4.154-3.702-7.214-6.146-10.453l-1.301-1.727l-0.319,2.143c-0.73-0.612-1.434-1.199-1.829-1.529l2.961-4.156
		c3.791-3.53,8.081-4.59,12.153-5.209l1.892-0.288l-1.763-0.744c-0.643-0.271-1.407-0.422-2.276-0.447
		c1.593-0.626,3.503-0.914,5.928-0.914l4.918,0.046l-3.544-0.912c2.53-0.445,4.813-0.292,6.887,0.47l1.731,0.636l-1.113-1.47
		c-0.088-0.114-0.193-0.231-0.307-0.344c0.139-0.004,0.295-0.006,0.473-0.006c1.932,0,4.917,0.278,5.786,0.362l1.813,0.178
		l-1.424-1.138c-1.295-1.034-4.975-1.652-9.847-1.652c-2.431,0-6.075,0.21-8.896,0.856l4.464-1.995l-4.946,1.041
		c-9.927,2.09-15.866,9.981-17.29,12.077c-4.938-5.108-11.42-6.197-16.046-6.197c-2.695,0-4.619,0.384-4.829,0.428l-0.155,0.058
		c-1.776,1-3.952,2.105-4.349,2.146c-0.419-0.042-2.587-1.146-4.356-2.146l-0.157-0.058c-0.211-0.044-2.145-0.428-4.828-0.428
		c-4.627,0-11.11,1.09-16.05,6.198c-1.434-2.095-7.419-10-17.288-12.078l-4.947-1.041l4.459,1.993
		c-2.819-0.644-6.462-0.854-8.891-0.854c-4.871,0-8.552,0.619-9.847,1.652l-1.424,1.138l1.813-0.178
		c0.87-0.084,3.854-0.362,5.787-0.362c0.178,0,0.335,0.002,0.474,0.006c-0.113,0.113-0.22,0.23-0.307,0.344l-1.115,1.471
		l1.733-0.637c2.071-0.762,4.358-0.915,6.888-0.47l-3.545,0.912l4.918-0.046c2.426,0,4.335,0.288,5.929,0.914
		c-0.869,0.025-1.634,0.176-2.277,0.447l-1.762,0.744l1.891,0.288c4.072,0.62,8.362,1.68,12.155,5.209l2.961,4.156
		c-0.397,0.331-1.1,0.917-1.83,1.529l-0.32-2.142l-1.3,1.727c-2.443,3.235-4.752,6.294-6.148,10.454
		c-0.462,0.185-1.499,0.638-1.964,1.14c-0.665,0.718-2.075,2.936-2.594,3.765c-2.09-0.813-4.345-2.25-6.88-4.382l-1.146-0.965
		l0.267,1.475c0.136,0.75,0.552,1.636,1.262,2.682c-3.526-2.168-6.866-4.924-9.952-8.216l-2.597-2.771l1.721,3.385
		c3.322,6.531,8.16,10.793,14.769,13.004l-1.84,1.537l-7.579,8.577l2.505-1.264c1.069-0.539,1.909-0.618,2.723-0.235L17.908,75.489
		l2.622-1.638c1.627-1.017,3.854-1.75,4.941-2.073c-6.26,7.323-13.181,17.756-13.423,18.919l-0.269,1.296l1.1-0.737
		c0.092-0.062,0.201-0.157,0.336-0.292c1.119-1.118,2.371-1.855,3.405-2.327c-4.315,4.218-6.406,9.841-6.992,11.63l-1.139,3.482
		l2.096-3.006c1.326-1.902,2.483-2.945,3.304-3.514c-4.912,8.568-4.604,15.739-4.377,17.812l0.333,3.052l0.728-2.982
		c1.298-5.318,2.979-6.817,3.973-7.221l-0.947,1.158l-0.026,0.135c-1.292,6.877,2.601,17.309,3.825,20.344l1.315,3.26l-0.275-3.506
		c-0.33-4.172,0.977-8.517,1.822-10.818c0.865,5.16,3.857,12.202,4.844,14.435l1.403,3.175l-0.372-3.451
		c-0.227-2.1-0.073-3.721,0.171-4.877c0.876,2.611,4.648,8.322,6.303,10.762l2.469,3.641l-1.515-4.13
		c-1.061-2.892-1.277-8.052-1.286-8.271l-0.006-0.162l-0.094-0.131c-0.468-0.651-0.855-1.633-1.16-2.641
		c2.276,3.857,5.472,7.472,5.927,7.979l0.044,0.044c3.886,3.46,5.662,6.437,6.113,7.266l0.855,1.574l0.017-0.188
		c0.212,1.441,0.208,2.805,0.195,3.344l-0.053,2.237l1.067-1.968c1.773-3.268,2.975-5.091,3.431-5.53
		c0.224,0.212,0.594,0.895,0.878,1.753l0.025,0.092l0.07,0.082c0.184,0.306,0.055,2.063-1.056,5.654l-0.88,2.845l1.823-2.354
		c3.541-4.573,3.982-10.379,3.855-13.893c0.179,0.674,0.266,1.248,0.308,1.646l0.38,3.6l0.464-2.4
		c-0.084,3.029-0.635,6.456-0.668,6.661l-0.025,0.156l4.321,9.95l0.235-1.987c0.199-1.687,0.772-3.339,1.709-4.933l-0.267,1.42
		l2.978,8.075l0.876-4.604l1.502,2.554l-0.313-2.576c-0.028-0.224-0.053-0.442-0.078-0.655c0.61,2.352,1.478,5.25,2.601,7.327
		l1.133,2.092l-0.118-2.377c-0.119-2.381,0.009-5.301,0.645-6.88l0.338,2.629l0.899-1.682c0.161,0.808,0.417,1.871,0.797,2.902
		l0.032,0.086l1.069,1.296c0.207,0.462,1.566,3.417,3.138,5.298l1.178,1.408l-0.228-1.821c-0.067-0.543-0.097-1.87,0.73-3.845
		c0.276,2.146,0.964,5.995,2.556,8.979l0.477,0.894l0.477-0.894c1.589-2.979,2.277-6.828,2.554-8.979
		c0.828,1.975,0.799,3.303,0.73,3.846l-0.227,1.821l1.178-1.408c1.58-1.891,2.965-4.914,3.135-5.291l1.072-1.303l0.032-0.086
		c0.378-1.025,0.633-2.086,0.796-2.903l0.899,1.681l0.337-2.616c0.636,1.588,0.763,4.496,0.646,6.87l-0.116,2.372l1.131-2.088
		c1.123-2.076,1.99-4.973,2.601-7.323c-0.024,0.212-0.05,0.43-0.076,0.652l-0.311,2.569l1.498-2.548l0.877,4.604l2.977-8.075
		l-0.266-1.42c0.936,1.594,1.509,3.246,1.708,4.933l0.235,1.986l4.32-9.949l-0.025-0.156c-0.033-0.205-0.586-3.633-0.67-6.667
		l0.467,2.406l0.38-3.6c0.044-0.406,0.133-0.997,0.319-1.69c-0.123,3.513,0.311,9.374,3.844,13.938l1.822,2.354l-0.879-2.844
		c-1.109-3.592-1.239-5.35-1.063-5.646l0.07-0.081l0.033-0.103c0.284-0.868,0.674-1.576,0.865-1.764
		c0.446,0.418,1.654,2.245,3.441,5.542l1.065,1.966l-0.051-2.235c-0.013-0.539-0.015-1.906,0.198-3.347l0.016,0.188l0.855-1.571
		c0.451-0.829,2.227-3.807,6.111-7.266l0.049-0.049c0.453-0.505,3.657-4.129,5.935-7.994c-0.297,0.992-0.685,1.982-1.171,2.66
		l-0.094,0.131l-0.007,0.162c-0.009,0.219-0.225,5.379-1.286,8.271l-1.514,4.127l2.469-3.638c1.654-2.439,5.426-8.146,6.302-10.76
		c0.244,1.157,0.397,2.776,0.171,4.875l-0.372,3.453l1.404-3.177c0.986-2.233,3.981-9.284,4.844-14.432
		c0.843,2.302,2.149,6.655,1.821,10.815l-0.275,3.506l1.316-3.26c1.224-3.034,5.115-13.467,3.824-20.344l-0.026-0.135l-0.947-1.157
		c0.995,0.403,2.675,1.901,3.973,7.22l0.727,2.979l0.335-3.048c0.228-2.07,0.539-9.236-4.376-17.812
		C146.935,97.798,148.091,98.841,149.416,100.743z"/>
	<g>
		<path d="M148.539,93.993l2.948,1.717c0.028,0.016,0.063,0.014,0.086-0.005c0.024-0.019,0.036-0.052,0.027-0.082
			c-2.605-9.312-8.045-15.701-9.773-17.558c0.707,0.446,1.313,0.671,1.804,0.671c0.587,0,0.86-0.326,0.966-0.507l2.598,3.233
			c0.023,0.029,0.064,0.038,0.098,0.018c0.033-0.019,0.047-0.059,0.033-0.095c-2.324-5.8-6.616-12.507-9.506-16.72
			c2.146,1.182,4.136,2.725,5.83,4.115c0.016,0.013,0.033,0.018,0.05,0.018c0.001,0,0.002,0,0.005,0
			c0.041,0,0.076-0.034,0.076-0.076c0-0.022-0.01-0.041-0.023-0.056c-3.512-6.675-8.762-12.881-14.8-17.496
			c1.771-0.589,13.403-9.065,18.122-19.526c3.273-7.258,2.465-13.738-2.408-19.257c-3.17-3.589-9.862-7.212-17.67-7.212
			c-6.504,0-16.33,2.566-26.228,14.791c-0.269-0.099-1.545-0.563-3.358-1.089l0.422-0.332c0.026-0.02,0.037-0.056,0.023-0.087
			c-0.011-0.031-0.045-0.056-0.076-0.048l-1.701,0.098c-0.337-0.089-0.684-0.177-1.041-0.265l3.791-2.201
			c0.03-0.018,0.045-0.054,0.035-0.088s-0.045-0.056-0.076-0.056c-1.457,0.056-4.877,1.124-5.966,1.475l1.307-1.211
			c0.024-0.022,0.032-0.059,0.018-0.09c-0.017-0.03-0.048-0.048-0.082-0.042c-0.868,0.144-1.548,0.396-2.026,0.629l0.325-0.274
			c0.026-0.022,0.036-0.058,0.022-0.09c-0.015-0.032-0.048-0.049-0.082-0.045l-1.65,0.224l3.139-1.931
			c0.032-0.02,0.044-0.061,0.029-0.096c-0.015-0.035-0.053-0.054-0.09-0.044c-1.99,0.518-5.186,1.811-7.275,2.697
			c-2.747,0.049-4.843,0.655-6.231,1.806l-0.227,0.083l-0.227-0.083c-1.389-1.151-3.485-1.757-6.231-1.806
			c-2.091-0.886-5.287-2.179-7.277-2.697c-0.036-0.01-0.075,0.009-0.089,0.044c-0.015,0.035-0.003,0.076,0.03,0.096l3.138,1.931
			l-1.651-0.224c-0.033-0.004-0.066,0.014-0.08,0.045c-0.014,0.032-0.005,0.067,0.021,0.09l0.327,0.274
			c-0.48-0.232-1.158-0.485-2.027-0.629c-0.035-0.006-0.066,0.012-0.082,0.042c-0.014,0.031-0.007,0.067,0.018,0.09l1.307,1.211
			c-1.089-0.352-4.509-1.419-5.966-1.475c-0.032,0-0.067,0.022-0.077,0.056c-0.009,0.034,0.005,0.07,0.036,0.088l3.792,2.201
			c-0.357,0.088-0.706,0.176-1.042,0.265l-1.702-0.098c-0.031-0.008-0.064,0.018-0.076,0.048c-0.012,0.032-0.002,0.067,0.024,0.087
			l0.422,0.332c-1.813,0.526-3.089,0.99-3.358,1.089C49.33,7.741,39.504,5.175,33,5.175c-7.809,0-14.501,3.623-17.672,7.212
			c-4.872,5.52-5.682,11.999-2.408,19.257c4.72,10.461,16.352,18.938,18.124,19.526c-6.039,4.615-11.29,10.821-14.802,17.496
			c-0.014,0.015-0.022,0.034-0.022,0.056c0,0.042,0.036,0.076,0.078,0.076c0.001,0,0.002,0,0.004,0c0.017,0,0.034-0.005,0.048-0.018
			c1.694-1.391,3.684-2.933,5.831-4.115c-2.889,4.212-7.182,10.92-9.506,16.72c-0.014,0.036,0,0.076,0.033,0.095
			c0.032,0.02,0.074,0.011,0.098-0.018l2.597-3.233c0.107,0.182,0.379,0.507,0.966,0.507c0.492,0,1.097-0.225,1.804-0.671
			c-1.727,1.857-7.167,8.246-9.773,17.558c-0.009,0.03,0.002,0.063,0.027,0.082s0.058,0.021,0.085,0.005l2.948-1.717
			c-1.024,1.408-5.272,7.537-6.459,13.802c-0.006,0.034,0.011,0.068,0.042,0.083c0.03,0.016,0.068,0.009,0.09-0.017l1.893-2.06
			l-1.68,4.561c-0.014,0.035,0.002,0.076,0.037,0.095c0.036,0.017,0.078,0.005,0.1-0.028l2.338-3.64
			c-0.17,1.674-0.795,9.471,1.415,16.49c0.011,0.032,0.039,0.053,0.072,0.054h0.001c0.032,0,0.061-0.02,0.072-0.049l2.866-7.758
			c0.184,2.158,1.467,13.83,8.281,24.555c0.018,0.028,0.054,0.042,0.087,0.032s0.056-0.04,0.055-0.074l-0.176-13.187
			c0.622,2.08,3.142,9.581,8.902,16.313c0.023,0.026,0.062,0.035,0.094,0.02c0.031-0.016,0.048-0.052,0.041-0.087l-1.579-6.834
			c0.768,1.319,3.273,5.061,8.976,9.117c0.026,0.019,0.06,0.02,0.087,0c0.026-0.017,0.039-0.049,0.032-0.08l-1.955-8.25
			c0.735,0.404,4.041,2.438,5.588,6.999l1.98,5.947l-0.425,1.218c-0.009,0.026-0.004,0.054,0.014,0.075
			c0.017,0.021,0.042,0.031,0.07,0.026c0.046-0.009,1.14-0.208,1.871-1.582c0.229-0.182,2.716-2.16,3.529-3.777
			c-0.025,1.384-0.497,6.581-5.849,11.378c-0.027,0.024-0.034,0.065-0.014,0.098c0.02,0.031,0.06,0.044,0.094,0.031
			c0.088-0.035,8.83-3.493,11.216-6.871l4.719,6.125c0.147,0.91,0.381,1.746,0.652,2.484c1.222,3.342,3.41,5.518,3.432,5.54
			c0.026,0.023,0.066,0.028,0.096,0.009c0.03-0.021,0.043-0.059,0.029-0.094l-1.987-5.054l0.011,0.014
			c0.67,1.136,1.417,2.19,1.427,2.204c0.024,0.032,0.069,0.042,0.104,0.021s0.045-0.067,0.026-0.103
			c-0.507-0.889-0.9-3.31-1.103-4.799c1.081,3.281,4.199,7.443,4.234,7.491c0.024,0.029,0.066,0.039,0.1,0.02
			c0.033-0.018,0.048-0.058,0.035-0.094c-0.651-1.717-0.538-4.721-0.459-5.943c1.248,5.511,5.71,10.068,5.757,10.114
			c0.025,0.024,0.064,0.031,0.094,0.011c0.03-0.018,0.044-0.056,0.033-0.09c-0.89-2.667-0.535-6.46-0.384-7.712
			c0.919,3.803,2.574,6.048,2.592,6.071c0.019,0.026,0.053,0.038,0.085,0.026c0.031-0.011,0.052-0.04,0.052-0.072l-0.013-2.691
			c1.507,4.383,4.297,6.913,4.327,6.938c0.023,0.021,0.055,0.025,0.082,0.015c0.028-0.012,0.046-0.039,0.046-0.07l0.043-3.349
			c0.866,4.093,2.602,7.004,2.621,7.034c0.148,0.242,0.214,0.252,0.369,0c0.018-0.03,1.754-2.941,2.62-7.034l0.044,3.349
			c0,0.031,0.018,0.059,0.046,0.07c0.026,0.011,0.06,0.007,0.081-0.015c0.029-0.024,2.82-2.555,4.327-6.938l-0.013,2.691
			c0,0.032,0.021,0.062,0.053,0.072c0.031,0.012,0.066,0,0.085-0.026c0.018-0.023,1.673-2.269,2.593-6.071
			c0.15,1.252,0.504,5.045-0.385,7.712c-0.012,0.034,0.001,0.072,0.033,0.09c0.029,0.021,0.068,0.014,0.094-0.011
			c0.046-0.046,4.51-4.604,5.757-10.114c0.079,1.223,0.192,4.227-0.46,5.943c-0.014,0.036,0.002,0.076,0.035,0.094
			c0.033,0.02,0.075,0.01,0.098-0.02c0.036-0.048,3.155-4.21,4.236-7.491c-0.203,1.489-0.597,3.91-1.104,4.799
			c-0.021,0.035-0.01,0.081,0.025,0.103c0.034,0.021,0.08,0.012,0.104-0.021c0.01-0.014,0.757-1.068,1.427-2.204l0.011-0.014
			l-1.986,5.054c-0.014,0.035-0.002,0.073,0.028,0.094c0.03,0.02,0.069,0.015,0.096-0.009c0.022-0.022,2.212-2.198,3.434-5.54
			c0.271-0.738,0.504-1.574,0.651-2.484l4.719-6.125c2.388,3.378,11.127,6.836,11.217,6.871c0.033,0.013,0.073,0,0.093-0.031
			c0.02-0.032,0.014-0.073-0.014-0.098c-5.351-4.797-5.822-9.994-5.849-11.378c0.813,1.617,3.3,3.596,3.529,3.777
			c0.73,1.374,1.822,1.573,1.87,1.582c0.027,0.005,0.054-0.006,0.071-0.026c0.018-0.021,0.023-0.049,0.014-0.075l-0.425-1.218
			l1.979-5.947c1.549-4.562,4.853-6.595,5.588-6.999l-1.954,8.25c-0.007,0.031,0.007,0.063,0.032,0.08
			c0.027,0.02,0.061,0.019,0.088,0c5.701-4.057,8.207-7.798,8.976-9.117l-1.579,6.834c-0.008,0.035,0.009,0.071,0.039,0.087
			c0.032,0.016,0.071,0.007,0.094-0.02c5.761-6.732,8.282-14.233,8.902-16.313l-0.175,13.187c0,0.034,0.021,0.064,0.055,0.074
			c0.032,0.01,0.067-0.004,0.085-0.032c6.814-10.725,8.097-22.396,8.281-24.555l2.865,7.758c0.012,0.029,0.041,0.049,0.072,0.049
			c0,0,0.001,0,0.004,0c0.031-0.001,0.061-0.021,0.07-0.054c2.21-7.02,1.586-14.816,1.416-16.49l2.337,3.64
			c0.021,0.033,0.064,0.045,0.099,0.028c0.035-0.019,0.053-0.06,0.039-0.095l-1.682-4.561l1.893,2.06
			c0.023,0.025,0.061,0.032,0.09,0.017c0.031-0.015,0.049-0.049,0.043-0.083C153.812,101.53,149.563,95.401,148.539,93.993z
			 M149.95,114.981c-1.709-7.004-4.163-7.772-5.152-7.772c-0.261,0-0.415,0.054-0.422,0.056c-0.023,0.009-0.041,0.029-0.047,0.053
			c-0.008,0.022-0.002,0.05,0.014,0.068l1.553,1.896c1.291,6.864-2.832,17.658-3.794,20.041c0.486-6.182-2.506-12.679-2.536-12.745
			c-0.016-0.032-0.051-0.053-0.084-0.043c-0.037,0.007-0.061,0.036-0.064,0.07c-0.307,5.146-4.084,13.967-5.015,16.073
			c0.542-5.025-1.013-7.412-1.028-7.436c-0.02-0.029-0.055-0.041-0.088-0.031c-0.033,0.011-0.053,0.041-0.053,0.076l0.063,1.889
			c-0.525,2.313-4.943,8.95-6.352,11.024c1.081-2.945,1.303-8.042,1.318-8.435c1.445-2.01,2.039-6.474,2.045-6.518
			c0.005-0.038-0.02-0.075-0.057-0.085c-0.037-0.011-0.078,0.012-0.092,0.049c-1.871,4.969-7.456,11.162-7.506,11.219
			c-3.955,3.521-5.766,6.563-6.229,7.411l-0.093-1.05c-0.003-0.033-0.029-0.062-0.063-0.068c-0.035-0.005-0.069,0.013-0.083,0.046
			c-0.903,2.103-0.917,5.088-0.895,6.073c-0.794-1.464-3.235-5.868-3.862-5.868c-0.688,0-1.338,1.893-1.433,2.18
			c-0.643,0.749,0.552,4.847,0.956,6.155c-5.233-6.76-3.471-16.469-3.452-16.567c0.007-0.037-0.014-0.074-0.05-0.087
			c-0.033-0.013-0.073,0.001-0.092,0.032c-1.111,1.894-1.438,3.735-1.533,4.649l-0.445-2.302c-0.008-0.034-0.037-0.061-0.074-0.062
			c-0.035,0.002-0.067,0.022-0.076,0.057c-0.752,2.964,0.35,9.861,0.423,10.31l-3.46,7.97c-0.256-2.154-1.121-4.538-3.048-6.997
			c-0.022-0.027-0.061-0.038-0.093-0.021c-0.032,0.014-0.05,0.048-0.043,0.083l0.646,3.439l-2.253,6.108l-0.742-3.903
			c-0.006-0.03-0.031-0.055-0.062-0.061c-0.033-0.006-0.064,0.009-0.08,0.038l-0.811,1.379c0.127-1.056,0.469-4.035,0.338-5.011
			c-0.008-0.058-0.025-0.176-0.121-0.176c-0.132,0-0.189,0.182-0.611,1.946c-0.571,2.393-1.619,6.775-3.142,9.589
			c0.069-1.421,0.222-6.836-1.438-8.244c-0.021-0.017-0.051-0.021-0.078-0.013c-0.025,0.011-0.044,0.034-0.047,0.063l-0.279,2.172
			l-0.744-1.39c-0.016-0.03-0.048-0.046-0.082-0.039c-0.033,0.006-0.059,0.032-0.062,0.066c-0.003,0.022-0.264,2.157-0.995,4.141
			l-1.051,1.276c-0.006,0.006-0.009,0.011-0.012,0.018c-0.014,0.034-1.445,3.265-3.084,5.226c0.088-0.704,0.127-2.692-1.494-5.604
			c-0.017-0.03-0.051-0.045-0.084-0.038c-0.033,0.009-0.058,0.036-0.059,0.071c-0.005,0.063-0.396,6.138-2.661,10.385
			c-2.266-4.247-2.657-10.322-2.661-10.385c-0.002-0.035-0.027-0.063-0.06-0.071c-0.033-0.007-0.067,0.008-0.084,0.038
			c-1.622,2.912-1.582,4.9-1.494,5.604c-1.639-1.961-3.069-5.191-3.083-5.226c-0.003-0.007-0.007-0.012-0.012-0.018l-1.052-1.276
			c-0.731-1.983-0.993-4.118-0.995-4.141c-0.004-0.034-0.028-0.061-0.061-0.066c-0.035-0.007-0.066,0.009-0.083,0.039l-0.743,1.39
			l-0.279-2.172c-0.003-0.028-0.022-0.052-0.048-0.063c-0.026-0.009-0.056-0.004-0.078,0.013c-1.66,1.408-1.509,6.823-1.438,8.244
			c-1.522-2.813-2.57-7.196-3.142-9.589c-0.422-1.765-0.479-1.946-0.613-1.946c-0.095,0-0.111,0.118-0.119,0.176
			c-0.132,0.976,0.209,3.955,0.338,5.011l-0.812-1.379c-0.017-0.029-0.047-0.044-0.079-0.038s-0.056,0.03-0.062,0.061l-0.743,3.903
			l-2.253-6.108l0.647-3.439c0.006-0.035-0.013-0.069-0.044-0.083c-0.033-0.017-0.07-0.006-0.092,0.021
			c-1.926,2.459-2.793,4.843-3.048,6.997l-3.461-7.97c0.073-0.448,1.176-7.346,0.423-10.31c-0.008-0.034-0.041-0.055-0.077-0.057
			c-0.036,0.001-0.066,0.027-0.073,0.062l-0.445,2.302c-0.097-0.914-0.424-2.756-1.533-4.649c-0.019-0.031-0.059-0.045-0.093-0.032
			c-0.036,0.013-0.056,0.05-0.049,0.087c0.018,0.099,1.78,9.808-3.453,16.567c0.404-1.309,1.6-5.406,0.957-6.155
			c-0.095-0.287-0.745-2.18-1.433-2.18c-0.628,0-3.069,4.404-3.863,5.868c0.023-0.985,0.008-3.971-0.894-6.073
			c-0.014-0.033-0.048-0.051-0.083-0.046c-0.035,0.007-0.061,0.035-0.065,0.068l-0.092,1.05c-0.461-0.848-2.274-3.891-6.229-7.411
			c-0.05-0.057-5.634-6.25-7.508-11.219c-0.014-0.037-0.053-0.06-0.089-0.049c-0.038,0.01-0.063,0.047-0.058,0.085
			c0.005,0.044,0.6,4.508,2.045,6.518c0.015,0.393,0.238,5.489,1.318,8.435c-1.407-2.074-5.827-8.712-6.352-11.024l0.063-1.889
			c0-0.035-0.022-0.065-0.054-0.076c-0.033-0.01-0.069,0.002-0.088,0.031c-0.016,0.023-1.571,2.41-1.029,7.436
			c-0.931-2.106-4.708-10.928-5.015-16.073c-0.002-0.034-0.028-0.063-0.063-0.07c-0.034-0.01-0.069,0.011-0.083,0.043
			c-0.032,0.066-3.024,6.563-2.538,12.745c-0.961-2.383-5.085-13.177-3.794-20.041l1.552-1.896c0.017-0.019,0.022-0.046,0.015-0.068
			c-0.007-0.023-0.025-0.044-0.049-0.053c-0.006-0.002-0.16-0.056-0.42-0.056c-0.99,0-3.445,0.769-5.155,7.772
			c-0.202-1.843-0.631-9.688,5.114-18.822c0.016-0.025,0.016-0.059-0.002-0.084c-0.016-0.023-0.045-0.037-0.077-0.032
			c-0.09,0.016-2.177,0.426-4.942,4.392c0.615-1.881,3.157-8.764,8.622-12.946c0.028-0.021,0.038-0.06,0.023-0.092
			c-0.015-0.033-0.048-0.051-0.084-0.045c-0.033,0.007-3.283,0.644-5.871,3.229c-0.134,0.135-0.213,0.197-0.256,0.227
			c0.245-1.179,9.515-15.058,16.304-21.979c0.029-0.029,0.03-0.076,0.001-0.106c-0.027-0.029-0.074-0.033-0.105-0.006l-2.825,2.365
			c-0.31,0.082-3.518,0.943-5.708,2.312L32.07,58.351c0.014-0.017,0.02-0.039,0.016-0.06c-0.003-0.021-0.015-0.04-0.032-0.051
			c-1.101-0.751-2.265-0.777-3.704-0.051l5.663-6.417l2.488-2.079c0.021-0.018,0.031-0.046,0.025-0.074
			c-0.006-0.027-0.025-0.051-0.053-0.059c-6.874-2.083-11.869-6.335-15.254-12.99c3.708,3.955,7.775,7.144,12.099,9.483
			c0.033,0.018,0.072,0.01,0.096-0.019c0.023-0.029,0.023-0.07-0.001-0.098c-1.522-1.802-2.387-3.247-2.578-4.299
			c2.727,2.295,5.147,3.803,7.395,4.608c0.035,0.013,0.072-0.001,0.092-0.032c0.019-0.032,1.955-3.167,2.731-4.005
			c0.498-0.537,1.952-1.076,1.966-1.082c0.022-0.008,0.04-0.026,0.046-0.048c1.357-4.177,3.677-7.251,6.134-10.505
			c0.175-0.23,0.35-0.463,0.526-0.696l0.251,1.684c0.004,0.028,0.022,0.051,0.049,0.061c0.025,0.009,0.054,0.005,0.076-0.013
			c1.309-1.1,2.792-2.334,2.792-2.334c0.03-0.026,0.036-0.071,0.014-0.104l-3.242-4.551c-3.872-3.624-8.277-4.746-12.481-5.386
			c1.053-0.444,2.469-0.527,4.224-0.245c0.035,0.005,0.07-0.014,0.083-0.047c0.013-0.034,0.002-0.072-0.029-0.093
			c-2.039-1.393-4.549-2.013-8.14-2.013c-0.157,0-0.316,0.002-0.48,0.003l1.102-0.283C33.976,16.548,34,16.519,34,16.484
			s-0.022-0.065-0.056-0.075c-1.701-0.461-3.247-0.686-4.725-0.686c-1.529,0-2.989,0.253-4.345,0.751
			c0.322-0.424,1.016-0.936,1.024-0.941c0.023-0.017,0.035-0.045,0.031-0.073c-0.004-0.028-0.023-0.052-0.051-0.061
			c-0.268-0.096-0.792-0.142-1.603-0.142c-1.956,0-4.987,0.282-5.839,0.365c1.173-0.937,4.833-1.534,9.51-1.534
			c4.966,0,10.923,0.749,12.267,2.391c0.025,0.032,0.069,0.038,0.102,0.016c0.033-0.022,0.043-0.064,0.025-0.099
			c-0.544-1.055-1.89-1.865-3.126-2.417c11.182,2.354,17.209,12.232,17.269,12.334c0.013,0.021,0.035,0.035,0.059,0.037
			c0.024,0.001,0.048-0.006,0.064-0.024c4.854-5.336,11.41-6.456,16.057-6.456c2.656,0,4.535,0.379,4.718,0.417
			c0,0,3.917,2.215,4.611,2.215c0.694,0,4.625-2.215,4.625-2.215c0.183-0.038,2.063-0.417,4.72-0.417
			c4.646,0,11.202,1.12,16.055,6.456c0.018,0.018,0.041,0.025,0.064,0.024c0.025-0.002,0.047-0.016,0.059-0.037
			c0.061-0.103,6.088-9.98,17.27-12.334c-1.237,0.553-2.582,1.362-3.127,2.417c-0.018,0.035-0.006,0.077,0.026,0.099
			c0.032,0.022,0.077,0.016,0.101-0.016c1.345-1.642,7.302-2.391,12.268-2.391c4.676,0,8.336,0.597,9.51,1.534
			c-0.853-0.083-3.883-0.365-5.839-0.365c-0.811,0-1.335,0.045-1.603,0.142c-0.027,0.009-0.047,0.033-0.05,0.061
			c-0.005,0.027,0.007,0.056,0.029,0.073c0.009,0.005,0.703,0.517,1.026,0.941c-1.357-0.498-2.818-0.751-4.347-0.751
			c-1.478,0-3.022,0.225-4.725,0.686c-0.032,0.009-0.056,0.04-0.056,0.075s0.023,0.064,0.058,0.074l1.102,0.283
			c-0.165-0.001-0.325-0.003-0.48-0.003c-3.591,0-6.102,0.62-8.142,2.013c-0.028,0.021-0.041,0.059-0.027,0.093
			s0.049,0.053,0.084,0.047c1.754-0.282,3.17-0.199,4.223,0.245c-4.205,0.64-8.61,1.763-12.48,5.386l-3.242,4.551
			c-0.022,0.033-0.018,0.077,0.014,0.104c0,0,1.483,1.234,2.792,2.334c0.022,0.018,0.05,0.022,0.077,0.013
			c0.025-0.01,0.044-0.033,0.049-0.061l0.251-1.684c0.176,0.233,0.351,0.466,0.525,0.696c2.456,3.254,4.776,6.328,6.134,10.505
			c0.007,0.022,0.023,0.04,0.046,0.048c0.015,0.005,1.469,0.544,1.968,1.082c0.774,0.839,2.711,3.974,2.73,4.005
			c0.02,0.031,0.059,0.044,0.092,0.032c2.246-0.805,4.668-2.313,7.395-4.608c-0.189,1.052-1.057,2.497-2.579,4.299
			c-0.024,0.028-0.024,0.069,0,0.098c0.023,0.028,0.063,0.037,0.097,0.019c4.322-2.34,8.391-5.529,12.096-9.483
			c-3.384,6.655-8.379,10.907-15.252,12.99c-0.027,0.008-0.047,0.032-0.054,0.059c-0.005,0.027,0.005,0.056,0.026,0.074l2.486,2.079
			l5.664,6.417c-1.439-0.726-2.604-0.701-3.704,0.051c-0.017,0.011-0.029,0.03-0.032,0.051c-0.004,0.021,0.002,0.042,0.016,0.06
			l11.828,15.042c-2.191-1.368-5.399-2.229-5.71-2.312l-2.823-2.365c-0.031-0.026-0.078-0.023-0.107,0.006
			c-0.027,0.031-0.025,0.077,0.003,0.106c6.788,6.921,16.058,20.8,16.303,21.979c-0.044-0.029-0.122-0.092-0.257-0.227
			c-2.586-2.586-5.836-3.222-5.869-3.229c-0.036-0.005-0.07,0.013-0.084,0.045c-0.016,0.032-0.006,0.071,0.022,0.092
			c5.466,4.182,8.008,11.065,8.622,12.946c-2.764-3.966-4.852-4.376-4.941-4.392c-0.031-0.005-0.061,0.009-0.077,0.032
			c-0.019,0.025-0.019,0.059-0.001,0.084C150.583,105.294,150.153,113.139,149.95,114.981z"/>
		<path d="M100.732,122.763c-1.138,0-2.339,0.096-3.573,0.282c-0.032,0.005-0.059,0.032-0.063,0.064
			c-0.006,0.034,0.011,0.066,0.042,0.081l1.863,0.936c-1.236,0.104-6.324,0.549-8.231,1.135c-0.034,0.011-0.057,0.043-0.054,0.079
			c0.002,0.036,0.029,0.065,0.065,0.071l1.86,0.278c-1.703,0.38-8.458,1.824-12.404,1.824c-0.079,0-0.152-0.003-0.228-0.005
			c-0.002,0-0.005,0-0.007,0c-0.003,0-0.005,0-0.007,0c-0.076,0.002-0.149,0.005-0.228,0.005c-3.947,0-10.702-1.444-12.406-1.824
			l1.861-0.278c0.035-0.006,0.062-0.035,0.065-0.071c0.002-0.036-0.02-0.068-0.054-0.079c-1.907-0.586-6.995-1.031-8.232-1.135
			l1.865-0.936c0.03-0.015,0.046-0.047,0.042-0.081c-0.005-0.032-0.032-0.06-0.065-0.064c-1.233-0.187-2.435-0.282-3.573-0.282
			c-8.361,0-11.411,5.108-11.613,5.467c-0.015,0.014-0.024,0.033-0.024,0.055c0,0.043,0.035,0.076,0.077,0.076
			c0.001,0,0.002,0,0.004,0c0.023,0,0.044-0.009,0.06-0.027c1.568-1.99,6.572-2.723,7.305-2.821
			c-0.097,2.713,1.005,6.576,1.017,6.616c0.01,0.034,0.042,0.058,0.08,0.055c0.037-0.003,0.066-0.032,0.07-0.067l0.428-4.021
			c0.904,7.32,10.385,20.525,10.485,20.664c0.022,0.031,0.065,0.04,0.099,0.021c0.033-0.019,0.048-0.06,0.034-0.096l-1.995-5.055
			c4.337,5.608,12.279,7.571,14.697,8.053v0.003c0.002,0,0.004-0.001,0.007-0.002c0.002,0.001,0.005,0.002,0.007,0.002v-0.003
			c2.417-0.481,10.359-2.444,14.695-8.053l-1.993,5.055c-0.015,0.036,0.001,0.077,0.034,0.096c0.034,0.019,0.076,0.01,0.1-0.021
			c0.1-0.139,9.579-13.344,10.484-20.664l0.428,4.021c0.004,0.035,0.033,0.064,0.07,0.067s0.07-0.021,0.08-0.055
			c0.01-0.04,1.113-3.903,1.018-6.616c0.73,0.099,5.735,0.831,7.304,2.821c0.015,0.019,0.036,0.027,0.06,0.027
			c0.002,0,0.002,0,0.006,0c0.041,0,0.075-0.033,0.075-0.076c0-0.021-0.009-0.041-0.023-0.055
			C112.143,127.871,109.093,122.763,100.732,122.763z M89.774,143.899c-3.822,3.66-7.017,4.206-8.578,4.206
			c-0.244,0-0.723-0.028-1.199-0.063c-0.475,0.035-0.955,0.063-1.198,0.063c-1.563,0-4.756-0.546-8.58-4.206
			c-0.029-0.027-0.031-0.073-0.004-0.105c0.027-0.03,0.072-0.034,0.105-0.011c0.037,0.029,3.818,2.862,9.313,2.768
			c0.128-0.002,0.246-0.005,0.356-0.009v-0.001c0.002,0,0.006,0.001,0.008,0.001c0.002,0,0.006-0.001,0.007-0.001v0.001
			c0.111,0.004,0.228,0.007,0.358,0.009c5.496,0.095,9.275-2.738,9.312-2.768c0.032-0.023,0.078-0.02,0.104,0.011
			C89.807,143.826,89.804,143.872,89.774,143.899z M98.915,127.052c-0.18,0.438-4.463,10.743-7.874,12.654
			c-0.011,0.007-0.024,0.01-0.037,0.01c-0.021,0-0.042-0.008-0.058-0.025c-0.023-0.026-0.025-0.065-0.006-0.095
			c0.021-0.03,2.059-2.987,1.078-6.822l-11.377,0.367c-0.008,0-0.269,0.02-0.637,0.049v0.001c-0.002-0.001-0.004-0.001-0.007-0.001
			c-0.002,0-0.004,0-0.008,0.001v-0.001c-0.368-0.029-0.628-0.049-0.636-0.049l-11.376-0.367c-0.981,3.835,1.057,6.792,1.077,6.822
			c0.021,0.029,0.018,0.068-0.006,0.095c-0.015,0.018-0.036,0.025-0.057,0.025c-0.013,0-0.026-0.003-0.038-0.01
			c-3.411-1.911-7.693-12.217-7.875-12.654c-0.013-0.032-0.003-0.068,0.023-0.089c0.028-0.022,0.066-0.022,0.093-0.003
			c4.387,3.178,17.959,3.846,18.095,3.844c0.25-0.004,0.482-0.002,0.706,0.001c0.224-0.003,0.456-0.005,0.706-0.001
			c0.137,0.002,13.71-0.666,18.095-3.844c0.028-0.02,0.066-0.02,0.094,0.003C98.919,126.983,98.929,127.02,98.915,127.052z"/>
		<path d="M133.362,87.75c-0.607-1.735-1.549-3.326-2.234-4.487c-0.162-0.271-0.305-0.513-0.428-0.731
			c1.862,0.499,3.654,1.814,3.672,1.828c0.014,0.01,0.027,0.015,0.047,0.016c0.043-0.004,0.08-0.034,0.08-0.077
			c0-0.022-0.01-0.042-0.025-0.056c-0.197-0.347-3.162-5.54-4.402-7.345c-2.347-3.42-3.768-4.761-7.039-7.196
			c0.053-0.007,0.123-0.011,0.215-0.011c1.527,0,6.63,1.247,6.681,1.26c0.007,0.002,0.014,0.002,0.021,0.003
			c0.037-0.004,0.078-0.035,0.078-0.077c0-0.032-0.019-0.058-0.045-0.071c-0.203-0.165-2.768-2.23-4.328-2.931
			c-2.743-1.23-6.012-1.896-6.588-2.008c0.088-0.216,0.396-0.825,1.212-1.225c0.794-0.39,3.643-0.822,3.671-0.826
			c0.039-0.005,0.066-0.038,0.065-0.077s-0.03-0.071-0.067-0.075c-0.018-0.002-1.729-0.183-3.164-0.183
			c-0.5,0-0.912,0.022-1.228,0.064c-1.118,0.152-3.208,0.775-4.013,1.023l2.833-2.609c0.026-0.025,0.032-0.065,0.013-0.098
			c-0.02-0.031-0.057-0.043-0.093-0.031l-6.899,2.646l3.26-5.897c0.019-0.034,0.01-0.076-0.021-0.099
			c-0.03-0.022-0.074-0.02-0.101,0.007l-6.493,6.486l-1.435,1.421l-7.291,7.082l-11.582,2.8c-0.035,0.008-0.059,0.04-0.059,0.076
			c0,0.035,0.024,0.065,0.06,0.073l4.45,0.986L84.691,80.7c-0.024,0.012-0.042,0.036-0.044,0.062
			c-0.003,0.029,0.009,0.055,0.031,0.071c0.019,0.014,0.943,0.657,2.295,1.319c-0.109,0.163-0.225,0.318-0.35,0.48
			c-0.18,0.238-0.385,0.507-0.606,0.859c0.163-0.627,0.261-1.021,0.263-1.031c0.01-0.037-0.01-0.075-0.045-0.09
			c-0.035-0.015-0.076-0.001-0.096,0.032c-0.171,0.294-3.493,6.018-4.158,9.249l-0.276-0.962c-0.266-1.128,0.172-2.56,0.597-3.945
			c0.332-1.085,0.645-2.111,0.619-2.961c-0.053-1.688,2.406-21.351,3.326-25.944c0.144-0.718,1.969-0.854,1.986-0.855
			c0.037-0.002,0.066-0.031,0.07-0.069c0.004-0.036-0.02-0.07-0.055-0.081c-0.018-0.006-1.926-0.591-1.93-1.782
			c-0.006-2.66,0.871-7.151,0.88-7.198l1.343-7.315c0.008-0.039-0.016-0.077-0.055-0.087c-0.038-0.011-0.078,0.01-0.092,0.047
			c-0.197,0.531-4.82,13.031-3.281,15.862c0.107,0.202,0.248,0.351,0.414,0.448c-0.149,0.048-0.281,0.133-0.396,0.256
			c-0.593,0.643-0.481,2.098-0.476,2.144l-2.21,18.758l-0.69,6.141c-0.012,0.037-1.147,3.768-1.537,5.283
			c-0.083,0.32-0.053,0.637,0.041,0.941l-0.258,0.649l-0.259-0.649c0.093-0.304,0.123-0.621,0.041-0.941
			c-0.39-1.515-1.526-5.246-1.538-5.283l-0.69-6.141l-2.21-18.758c0.005-0.046,0.116-1.501-0.475-2.144
			c-0.115-0.123-0.247-0.208-0.396-0.256c0.166-0.097,0.305-0.247,0.414-0.448c1.539-2.831-3.084-15.331-3.281-15.862
			c-0.014-0.037-0.055-0.058-0.092-0.047c-0.039,0.01-0.063,0.048-0.055,0.087l1.344,7.315c0.01,0.046,0.885,4.538,0.879,7.198
			c-0.003,1.191-1.911,1.776-1.93,1.782c-0.037,0.011-0.059,0.045-0.054,0.081c0.003,0.038,0.034,0.067,0.07,0.069
			c0.018,0.002,1.842,0.137,1.986,0.855c0.92,4.593,3.38,24.255,3.328,25.944c-0.028,0.85,0.287,1.876,0.619,2.961
			c0.424,1.385,0.863,2.816,0.596,3.945l-0.276,0.962c-0.665-3.231-3.988-8.954-4.158-9.249c-0.019-0.033-0.061-0.046-0.096-0.032
			c-0.036,0.015-0.054,0.053-0.046,0.09c0.002,0.01,0.101,0.403,0.263,1.031c-0.222-0.352-0.426-0.621-0.606-0.859
			c-0.125-0.162-0.241-0.317-0.35-0.48c1.351-0.662,2.276-1.305,2.295-1.319c0.022-0.016,0.035-0.042,0.032-0.071
			c-0.002-0.026-0.02-0.05-0.045-0.062l-7.494-3.289l4.451-0.986c0.035-0.007,0.06-0.038,0.061-0.073
			c0-0.036-0.024-0.068-0.059-0.076l-11.583-2.8l-7.292-7.082l0.979-17.292c0.001-0.04-0.029-0.077-0.069-0.081
			c-0.042-0.002-0.079,0.025-0.084,0.066l-2.259,15.885l-6.493-6.486c-0.027-0.027-0.07-0.029-0.102-0.007
			c-0.031,0.023-0.039,0.065-0.02,0.099l3.259,5.897l-6.9-2.646c-0.034-0.013-0.073,0-0.092,0.031
			c-0.02,0.033-0.014,0.073,0.013,0.098l2.833,2.609c-0.805-0.248-2.895-0.872-4.012-1.023c-0.316-0.042-0.73-0.064-1.228-0.064
			c-1.436,0-3.147,0.18-3.165,0.183c-0.038,0.004-0.067,0.036-0.068,0.075s0.027,0.072,0.065,0.077
			c0.028,0.004,2.878,0.437,3.672,0.826c0.814,0.4,1.125,1.009,1.211,1.225c-0.577,0.112-3.844,0.777-6.587,2.008
			c-1.561,0.701-4.125,2.767-4.33,2.931c-0.025,0.013-0.043,0.039-0.043,0.071c0,0.042,0.04,0.073,0.078,0.077
			c0.007-0.001,0.013-0.001,0.021-0.003c0.051-0.013,5.153-1.26,6.68-1.26c0.093,0,0.162,0.004,0.214,0.011
			c-3.271,2.436-4.691,3.776-7.039,7.196c-1.239,1.805-4.205,6.998-4.402,7.345c-0.015,0.014-0.023,0.034-0.023,0.056
			c0,0.043,0.035,0.073,0.078,0.077c0.02-0.001,0.034-0.005,0.047-0.016c0.019-0.014,1.81-1.329,3.672-1.828
			c-0.124,0.218-0.267,0.46-0.427,0.731c-0.687,1.162-1.628,2.752-2.235,4.487c-0.844,2.413-1.397,5.667-1.449,5.972
			c-0.005,0.011-0.009,0.022-0.009,0.036c0,0.043,0.041,0.072,0.079,0.076c0.028-0.003,0.055-0.014,0.069-0.037
			c0.025-0.047,2.56-4.465,4.499-5.092l-0.583,1.655c-0.01,0.012-0.016,0.028-0.016,0.045c0,0.042,0.034,0.077,0.077,0.077
			c0.001,0,0.002,0,0.003,0c0.019,0,0.039-0.008,0.053-0.022l2.855-2.74c-0.541,0.999-0.858,1.598-1.33,2.81
			c-0.47,1.209-0.92,2.33-0.985,2.492c-0.01,0.014-0.017,0.03-0.017,0.049c0,0.043,0.044,0.08,0.078,0.077
			c0.009,0,0.019-0.001,0.027-0.004c0.059-0.021,1.226-0.419,1.819-0.788l-1.929,3.962c-0.013,0.014-0.021,0.031-0.021,0.053
			c0,0.042,0.043,0.077,0.079,0.075c0.015,0.002,0.03-0.004,0.044-0.012l3.051-1.99c-0.729,7.141,2.123,10.816,2.803,11.582
			c-2.314-0.224-3.296-0.352-3.306-0.354c-0.036-0.003-0.069,0.016-0.082,0.047c-0.012,0.033-0.002,0.071,0.026,0.092
			c2.088,1.535,5.092,2.313,8.93,2.313c2.902,0,5.817-0.453,8.079-0.929l0.861,10.479c0.002,0.039,0.036,0.071,0.076,0.071
			c0,0,0,0,0.001,0c0.04-0.001,0.073-0.032,0.075-0.073l0.614-10.847c1.087-0.265,1.895-0.501,2.293-0.622l-2.174,2.351
			c-0.022,0.014-0.037,0.038-0.037,0.065c0,0.043,0.044,0.074,0.079,0.076c0,0,0.001,0,0.002,0c0.009,0,0.018-0.002,0.027-0.005
			c7.863-3.03,10.466-9.62,10.97-11.132l0.145,0.871c0.005,0.033,0.031,0.059,0.064,0.064c0.033,0.004,0.064-0.012,0.08-0.041
			c0.639-1.234,0.767-2.397,0.786-2.619c0.227-0.157,0.378-0.189,0.463-0.072c0.347,0.479-0.33,2.873-0.629,3.784
			c-0.008,0.012-0.014,0.027-0.014,0.044c0,0.043,0.044,0.078,0.079,0.077c0.018-0.002,0.043-0.007,0.058-0.025
			c2.714-2.995,2.863-9.14,2.869-9.505c0.153-0.333,0.312-0.507,0.459-0.507c0.332,0,0.683,0.879,0.825,1.433
			c0.008,0.032,0.036,0.055,0.069,0.058c0.033,0.002,0.064-0.018,0.076-0.048c1.532-3.711-0.647-6.86-1.271-7.65
			c0.455,0.115,0.948,0.173,1.466,0.173h0.001c0.959,0,1.945-0.199,2.874-0.489c0.133-0.042,0.265-0.084,0.395-0.13
			c2.094,2.055,4.128,5.871,5.006,7.634l0.284,2.822c-0.41,0.434-5.819,6.188-7.67,9.355c-0.008,0.014-0.034,0.057-0.008,0.1
			c0.014,0.023,0.043,0.041,0.071,0.041c0.038,0,0.128,0,1.861-1.668l3.256-3.596l-0.436,0.791
			c-0.015,0.014-0.024,0.033-0.024,0.055c0,0.042,0.035,0.077,0.078,0.077c0,0,0.001,0,0.003,0c0.018,0,0.036-0.008,0.051-0.021
			c0.222-0.197,0.471-0.416,0.735-0.645c0.942-0.822,2.01-1.754,2.646-2.5c0.809-0.95,1.556-2.246,1.563-2.258l1.513-2.105
			c0.003-0.004,0.004-0.011,0.007-0.016c0.002,0.005,0.002,0.012,0.006,0.016l1.513,2.105c0.007,0.012,0.753,1.308,1.563,2.258
			c0.635,0.746,1.703,1.678,2.646,2.5c0.265,0.229,0.514,0.447,0.735,0.645c0.015,0.013,0.033,0.021,0.051,0.021
			c0.002,0,0.003,0,0.004,0c0.043,0,0.077-0.035,0.077-0.077c0-0.021-0.009-0.041-0.024-0.055l-0.436-0.791l3.256,3.596
			c1.734,1.668,1.823,1.668,1.861,1.668c0.028,0,0.057-0.018,0.07-0.041c0.025-0.043,0-0.086-0.008-0.1
			c-1.851-3.168-7.26-8.922-7.67-9.355l0.284-2.822c0.877-1.764,2.912-5.579,5.005-7.634c1.041,0.36,2.172,0.619,3.27,0.619l0,0
			c0.519,0,1.012-0.058,1.467-0.173c-0.624,0.79-2.803,3.939-1.271,7.65c0.012,0.03,0.044,0.05,0.076,0.048
			c0.033-0.003,0.062-0.025,0.068-0.058c0.144-0.554,0.493-1.433,0.826-1.433c0.148,0,0.307,0.175,0.459,0.507
			c0.006,0.366,0.156,6.51,2.869,9.505c0.016,0.019,0.041,0.023,0.058,0.025c0.034,0.001,0.08-0.034,0.08-0.077
			c0-0.017-0.007-0.032-0.015-0.044c-0.299-0.911-0.975-3.306-0.631-3.784c0.087-0.117,0.238-0.085,0.464,0.072
			c0.019,0.222,0.149,1.385,0.787,2.619c0.015,0.029,0.047,0.045,0.079,0.041c0.033-0.006,0.059-0.031,0.065-0.064l0.144-0.871
			c0.504,1.512,3.106,8.102,10.971,11.132c0.009,0.003,0.018,0.005,0.027,0.005c0,0,0.001,0,0.002,0
			c0.033-0.002,0.078-0.033,0.078-0.076c0-0.027-0.014-0.052-0.037-0.065l-2.174-2.351c0.398,0.121,1.206,0.357,2.293,0.622
			l1.627,0.369c2.262,0.476,5.176,0.929,8.078,0.929c3.838,0,6.842-0.777,8.931-2.313c0.027-0.021,0.038-0.059,0.026-0.092
			c-0.015-0.031-0.047-0.05-0.082-0.047c-0.01,0.002-0.992,0.13-3.307,0.354c0.682-0.766,3.532-4.441,2.802-11.582l3.051,1.99
			c0.014,0.008,0.03,0.014,0.045,0.012c0.035,0.002,0.078-0.033,0.078-0.075c0-0.021-0.007-0.039-0.021-0.053l-1.928-3.962
			c0.594,0.369,1.76,0.768,1.818,0.788c0.008,0.003,0.018,0.004,0.026,0.004c0.035,0.003,0.078-0.034,0.078-0.077
			c0-0.019-0.006-0.035-0.018-0.049c-0.065-0.162-0.515-1.283-0.983-2.492c-0.473-1.212-0.791-1.811-1.33-2.81l2.854,2.74
			c0.016,0.015,0.035,0.022,0.054,0.022c0.001,0,0.003,0,0.005,0c0.041,0,0.075-0.035,0.075-0.077c0-0.017-0.005-0.034-0.016-0.045
			l-0.583-1.655c1.939,0.627,4.473,5.045,4.5,5.092c0.014,0.023,0.041,0.034,0.067,0.037c0.039-0.004,0.078-0.033,0.078-0.076
			c0-0.014-0.003-0.025-0.008-0.036C134.759,93.417,134.204,90.164,133.362,87.75z M53.317,80.582
			c-0.005,0.188-0.057,0.356-0.155,0.498c-0.527,0.758-2.227,0.488-3.795-0.602s-2.415-2.589-1.89-3.346
			c0.035-0.049,0.074-0.094,0.117-0.133c-1.024-0.475-2.143-0.917-3.363-1.301c0.329-0.335,7.833-2.316,11.948,7.521
			C56.252,83.512,55.339,82.245,53.317,80.582z M112.519,77.133c0.525,0.756-0.32,2.256-1.889,3.346
			c-1.569,1.09-3.27,1.36-3.796,0.602c-0.099-0.142-0.149-0.311-0.155-0.498c-2.022,1.663-2.936,2.93-2.862,2.638
			c4.116-9.837,11.62-7.856,11.949-7.521c-1.222,0.384-2.339,0.826-3.364,1.301C112.446,77.039,112.484,77.084,112.519,77.133z"/>
		<path d="M63.627,102.192c-0.034-0.019-0.076-0.011-0.101,0.02c-0.098,0.127-0.215,0.271-0.345,0.433
			c-1.521,1.882-5.081,6.288-3.881,12.905c0.621,3.416,3.547,5.914,8.701,7.425c4.074,1.194,8.688,1.521,11.993,1.576
			c0.002,0,0.004,0,0.007,0c0.002,0,0.005,0,0.007,0c3.304-0.055,7.917-0.382,11.992-1.576c5.153-1.511,8.08-4.009,8.7-7.425
			c1.2-6.617-2.36-11.023-3.88-12.905c-0.131-0.161-0.248-0.306-0.347-0.433c-0.022-0.03-0.065-0.038-0.099-0.02
			c-0.034,0.02-0.048,0.063-0.032,0.097c0.931,2.198,2.253,5.44,2.499,6.313c-0.025-0.039-0.055-0.086-0.088-0.143
			c-1.771-2.974-6.596-8.438-8.412-10.494c-0.406-0.461-0.678-0.767-0.736-0.844c-0.303-0.396-0.841-2.386-0.592-4.18
			c0.246-1.759,1.651-5.799,1.666-5.84c0.012-0.036-0.004-0.075-0.037-0.093c-0.034-0.019-0.075-0.008-0.098,0.023
			c-0.087,0.118-1.949,2.698-2.305,4.883l-0.438-2.865c-0.006-0.037-0.038-0.064-0.076-0.064c-0.042,0.003-0.07,0.028-0.076,0.066
			c-0.019,0.142-0.4,3.162,0.002,5.215l-1.385-2.731c-0.018-0.036-0.062-0.052-0.098-0.036c-0.035,0.014-0.056,0.055-0.045,0.092
			c0.051,0.174,1.127,3.846,1.908,5.36l-1.669-1.473c-0.03-0.026-0.075-0.024-0.104,0.004s-0.031,0.074-0.004,0.104l4.535,5.237
			l6.897,8.201c0.003,0.002,0.175,0.301,0.065,0.683c-0.101,0.347-0.395,0.651-0.879,0.903c-1.233,0.646-2.858,0.844-3.199,0.88
			c-0.746-2.599-10.443-2.913-13.667-2.945v-0.001c-0.002,0-0.005,0-0.007,0c-0.003,0-0.005,0-0.007,0v0.001
			c-3.225,0.032-12.922,0.347-13.668,2.945c-0.342-0.036-1.967-0.234-3.2-0.88c-0.483-0.252-0.778-0.557-0.878-0.903
			c-0.109-0.382,0.063-0.681,0.065-0.683l6.898-8.201l4.536-5.237c0.026-0.029,0.024-0.075-0.004-0.104
			c-0.028-0.028-0.075-0.03-0.105-0.004l-1.668,1.473c0.781-1.515,1.856-5.187,1.908-5.36c0.01-0.037-0.01-0.078-0.046-0.092
			c-0.036-0.016-0.079,0-0.097,0.036l-1.384,2.731c0.402-2.053,0.02-5.073,0.001-5.215c-0.005-0.038-0.034-0.063-0.077-0.066
			c-0.037,0-0.07,0.027-0.075,0.064l-0.438,2.865c-0.355-2.185-2.217-4.765-2.304-4.883c-0.023-0.032-0.064-0.042-0.099-0.023
			c-0.033,0.018-0.049,0.057-0.036,0.093c0.014,0.041,1.419,4.081,1.664,5.84c0.25,1.794-0.288,3.784-0.591,4.18
			c-0.059,0.077-0.329,0.383-0.737,0.844c-1.815,2.057-6.64,7.521-8.411,10.494c-0.034,0.057-0.063,0.104-0.088,0.143
			c0.245-0.873,1.569-4.115,2.499-6.313C63.674,102.255,63.66,102.212,63.627,102.192z M70.055,120.895c0,0,0.756,0.342,1.768,0.654
			c-1.455-1.015-3.7-2.807-3.7-2.807l7.58,3.148c0.95-0.308,1.535-1.131,1.195-2.89C76.898,119.001,80.306,126.319,70.055,120.895z
			 M89.944,120.895c-10.25,5.425-6.842-1.894-6.842-1.894c-0.34,1.759,0.245,2.582,1.195,2.89l7.578-3.148
			c0,0-2.244,1.792-3.699,2.807C89.188,121.236,89.944,120.895,89.944,120.895z M75.107,111.181l-1.473,0.732
			c0,0,2.486-0.406,6.366,0.166c3.88-0.572,6.365-0.166,6.365-0.166l-1.473-0.732c6.697-0.406,7.452,2.803,7.452,2.803
			c-7.452-2.803-12.023,7.609-12.023,7.609L80,114.437l-0.321,7.156c0,0-4.572-10.412-12.023-7.609
			C67.656,113.983,68.41,110.774,75.107,111.181z"/>
	</g>
</g>
</svg>
