<svg id="Capa_1" fill="#2f3640" enable-background="new 0 0 512 512" height="512" viewBox="0 0 512 512" width="512" xmlns="http://www.w3.org/2000/svg"><path d="m430.16 122.006c7.202 7.202 16.073 3.922 19.325 1.6l56.233-40.167c3.942-2.815 6.282-7.361 6.282-12.206v-56.233c0-8.284-6.716-15-15-15h-56.233c-4.845 0-9.391 2.339-12.206 6.281l-40.167 56.233c-4.262 5.967-3.586 14.141 1.6 19.325l9.477 9.477-119.371 119.371-41.25-41.233v-66.087c0-56.997-46.37-103.367-103.367-103.367h-56.233c-6.067 0-11.537 3.655-13.858 9.26-2.322 5.604-1.039 12.057 3.252 16.347l48.208 48.208c11.861 11.862 11.86 31.178 0 43.037-11.859 11.86-31.175 11.861-43.037 0l-48.209-48.208c-4.29-4.291-10.743-5.574-16.347-3.252-5.604 2.321-9.259 7.791-9.259 13.858v56.233c0 56.997 46.37 103.367 103.367 103.367h66.087l10.543 10.543-103.05 82.44c-.003.003-.007.005-.01.008l-71.308 57.046c-3.332 2.665-5.371 6.623-5.606 10.883s1.354 8.419 4.371 11.436l96.4 96.4c2.82 2.821 6.639 4.394 10.605 4.394.276 0 .553-.008.831-.023 4.26-.236 8.218-2.275 10.883-5.606l57.047-71.308c.002-.002.004-.005.006-.007l82.441-103.052 10.543 10.543v66.087c0 56.996 46.37 103.366 103.367 103.366h56.233c6.067 0 11.537-3.655 13.858-9.26 2.322-5.604 1.039-12.057-3.252-16.347l-48.208-48.208c-11.861-11.862-11.86-31.178 0-43.037 11.859-11.86 31.175-11.861 43.037 0l48.208 48.208c4.29 4.291 10.743 5.574 16.347 3.252 5.605-2.322 9.26-7.792 9.26-13.858v-56.233c0-56.997-46.37-103.367-103.367-103.367h-66.087l-41.234-41.25 119.371-119.37zm-262.878 281.13-58.418-58.418 146.023-116.818 29.214 29.213zm18.991-189.893c-2.813-2.813-6.628-4.393-10.606-4.393h-72.3c-40.455 0-73.367-32.912-73.367-73.367v-20.02l22.602 22.601c24.065 24.066 62.367 23.117 85.467.004 23.415-23.415 23.764-61.699-.004-85.467l-22.602-22.601h20.02c40.455 0 73.367 32.912 73.367 73.367v72.3c0 3.978 1.58 7.793 4.393 10.606l20.291 20.291-29.967 23.974zm-76.117 261.3-72.699-72.699 47.837-38.27 63.132 63.132zm226.177-171.393h72.3c40.455 0 73.367 32.912 73.367 73.367v20.02l-22.602-22.601c-24.065-24.066-62.367-23.117-85.467-.004-23.415 23.415-23.764 61.699.004 85.467l22.602 22.601h-20.02c-40.455 0-73.367-32.912-73.367-73.367v-72.3c0-3.978-1.58-7.793-4.393-10.606l-17.294-17.294 23.974-29.967 20.291 20.291c2.812 2.813 6.627 4.393 10.605 4.393zm112.152-273.15h33.515v33.514l-39.612 28.294-22.196-22.196z"/></svg>