<svg id="Layer_1" enable-background="new 0 0 512 512" height="512" viewBox="0 0 512 512" width="512" xmlns="http://www.w3.org/2000/svg"><g><path d="m458.125 60.25h-404.25c-29.707 0-53.875 24.168-53.875 53.875v283.75c0 29.707 24.168 53.875 53.875 53.875h404.25c29.707 0 53.875-24.168 53.875-53.875v-283.75c0-29.707-24.168-53.875-53.875-53.875zm23.875 337.625c0 13.165-10.71 23.875-23.875 23.875h-404.25c-13.165 0-23.875-10.71-23.875-23.875v-283.75c0-13.165 10.71-23.875 23.875-23.875h404.25c13.165 0 23.875 10.71 23.875 23.875z"/><path d="m119.042 120.5h-27.334c-17.346 0-31.458 14.112-31.458 31.458v27.333c0 16.899 13.396 30.723 30.125 31.425v165.784c0 8.284 6.716 15 15 15s15-6.716 15-15v-165.784c16.729-.702 30.125-14.526 30.125-31.425v-27.333c0-17.346-14.112-31.458-31.458-31.458zm1.458 58.792c0 .804-.654 1.458-1.458 1.458h-27.334c-.804 0-1.458-.654-1.458-1.458v-27.333c0-.804.654-1.458 1.458-1.458h27.333c.804 0 1.458.654 1.458 1.458v27.333z"/><path d="m210.75 301.284v-165.784c0-8.284-6.716-15-15-15s-15 6.716-15 15v165.784c-16.729.702-30.125 14.526-30.125 31.425v27.333c0 17.346 14.112 31.458 31.458 31.458h27.333c17.346 0 31.458-14.112 31.458-31.458v-27.333c.001-16.899-13.395-30.723-30.124-31.425zm.125 58.758c0 .804-.654 1.458-1.458 1.458h-27.333c-.804 0-1.458-.654-1.458-1.458v-27.333c0-.804.654-1.458 1.458-1.458h27.333c.804 0 1.458.654 1.458 1.458z"/><path d="m406.625 120.5c-24.882 0-45.125 20.243-45.125 45.125s20.243 45.125 45.125 45.125 45.125-20.243 45.125-45.125-20.243-45.125-45.125-45.125zm0 60.25c-8.34 0-15.125-6.785-15.125-15.125s6.785-15.125 15.125-15.125 15.125 6.785 15.125 15.125-6.785 15.125-15.125 15.125z"/><path d="m406.625 298.5c-24.882 0-45.125 20.243-45.125 45.125s20.243 45.125 45.125 45.125 45.125-20.243 45.125-45.125-20.243-45.125-45.125-45.125zm0 60.25c-8.34 0-15.125-6.785-15.125-15.125s6.785-15.125 15.125-15.125 15.125 6.785 15.125 15.125-6.785 15.125-15.125 15.125z"/><path d="m421.625 267v-22c0-8.284-6.716-15-15-15s-15 6.716-15 15v22c0 8.284 6.716 15 15 15s15-6.716 15-15z"/><path d="m301.12 180.784v-45.284c0-8.284-6.716-15-15-15s-15 6.716-15 15v45.284c-16.727.705-30.12 14.528-30.12 31.426v27.33c0 16.898 13.393 30.721 30.12 31.426v105.534c0 8.284 6.716 15 15 15s15-6.716 15-15v-105.534c16.732-.7 30.13-14.525 30.13-31.426v-27.33c0-16.901-13.398-30.726-30.13-31.426zm.13 58.756c0 .805-.655 1.46-1.46 1.46h-27.33c-.805 0-1.46-.655-1.46-1.46v-27.33c0-.805.655-1.46 1.46-1.46h27.33c.805 0 1.46.655 1.46 1.46z"/></g></svg>