<?xml version="1.0" encoding="iso-8859-1"?>
<!-- Generator: Adobe Illustrator 16.0.0, SVG Export Plug-In . SVG Version: 6.00 Build 0)  -->
<!DOCTYPE svg PUBLIC "-//W3C//DTD SVG 1.1//EN" "http://www.w3.org/Graphics/SVG/1.1/DTD/svg11.dtd">
<svg version="1.1" id="Capa_1" xmlns="http://www.w3.org/2000/svg" xmlns:xlink="http://www.w3.org/1999/xlink" x="0px" y="0px"
	 fill="#2f3640" width="30px" height="30px" viewBox="0 0 30 30" style="enable-background:new 0 0 30 30;" xml:space="preserve">
<g>
	<path d="M0,3.865v18.497h20.566L30,26.135v-3.771V3.865H0z M8.846,13.762H6.36v-2.209l1.041-2.104h0.956L7.763,11h1.083V13.762z
		 M12.862,13.762h-2.486v-2.209l1.041-2.104h0.956L11.778,11h1.083L12.862,13.762L12.862,13.762z M19.624,14.674l-1.041,2.104
		h-0.956l0.596-1.551h-1.084v-2.762h2.486L19.624,14.674L19.624,14.674z M23.641,14.674L22.6,16.778h-0.957l0.596-1.551h-1.084
		v-2.762h2.486V14.674L23.641,14.674z"/>
</g>
<g>
</g>
<g>
</g>
<g>
</g>
<g>
</g>
<g>
</g>
<g>
</g>
<g>
</g>
<g>
</g>
<g>
</g>
<g>
</g>
<g>
</g>
<g>
</g>
<g>
</g>
<g>
</g>
<g>
</g>
</svg>
