<svg id="Capa_1" fill="#2f3640" enable-background="new 0 0 512 512" height="512" viewBox="0 0 512 512" width="512" xmlns="http://www.w3.org/2000/svg"><path d="m504.431 133.753c-4.679-2.669-10.431-2.625-15.068.119l-59.194 35.013h-64.83v-33.014c0-14.888-12.112-27-27-27h-129.533c.362-2.655.547-5.34.547-8.039 0-32.939-26.798-59.737-59.737-59.737h-119.616v-17.237c0-8.284-6.716-15-15-15s-15 6.716-15 15v153.949c0 8.284 6.716 15 15 15s15-6.716 15-15v-17.237h46.789v153.991c0 14.888 12.112 27 27 27h102.274v43.285l-93.688 92.629c-5.891 5.824-5.945 15.322-.12 21.212 2.934 2.968 6.799 4.454 10.667 4.454 3.81 0 7.623-1.443 10.546-4.333l72.595-71.775v61.108c0 8.284 6.716 15 15 15s15-6.716 15-15v-61.109l72.596 71.776c2.924 2.891 6.735 4.333 10.546 4.333 3.867 0 7.733-1.487 10.667-4.454 5.825-5.891 5.771-15.389-.12-21.213l-93.689-92.63v-43.284h102.275c14.888 0 27-12.112 27-27v-33.039h64.83l59.194 35.013c2.354 1.392 4.995 2.089 7.637 2.089 2.563 0 5.127-.656 7.431-1.97 4.68-2.669 7.569-7.643 7.569-13.03v-156.84c.001-5.388-2.888-10.361-7.568-13.03zm-474.431-62.657h119.616c16.397 0 29.737 13.34 29.737 29.737 0 2.731-.383 5.434-1.121 8.038h-74.442c-13.073 0-24.004 9.341-26.474 21.699h-47.316zm76.789 240.465v-172.69h81c.039 0 .078.004.118.004.041 0 .082-.004.123-.004h147.309v172.69zm258.55-112.676h53.934v52.637h-53.934zm116.661 78.44-32.727-19.358v-65.527l32.727-19.358z"/><path d="m266.064 212.226-75-43.301c-4.642-2.68-10.359-2.68-15 0-4.641 2.679-7.5 7.631-7.5 12.99v86.603c0 5.359 2.859 10.311 7.5 12.99 2.32 1.34 4.91 2.01 7.5 2.01s5.18-.67 7.5-2.01l75-43.301c4.641-2.679 7.5-7.631 7.5-12.99s-2.858-10.312-7.5-12.991zm-67.5 30.311v-34.641l30 17.321z"/></svg>